<svg xmlns="http://www.w3.org/2000/svg" width="485.18851mm" height="149.2686mm" viewBox="0 0 485.18851 149.2686"><g transform="matrix(1.21248 0 0 1.21248 22.551 -96.649)"><circle cx="42.955776" cy="141.26691" r="61.555168" style="fill:#f9f9f9;fill-rule:evenodd;stroke-width:.503796"/><path d="M43.114 80.426c-33.297-.035-60.311 26.926-60.365 60.232-.036 33.298 26.934 60.32 60.223 60.366 33.297.035 60.32-26.926 60.374-60.223.036-33.298-26.925-60.33-60.232-60.375Zm-.124 101.676c-22.852-.036-41.346-18.574-41.32-41.426.036-22.843 18.575-41.346 41.427-41.32 22.843.028 41.345 18.584 41.319 41.427-.027 22.843-18.583 41.346-41.426 41.319" style="fill:#0051a6;fill-opacity:1;fill-rule:nonzero;stroke:none;stroke-width:2.28164"/><path d="M57.508 121.79c3.708-.606 6.551-3.806 6.551-7.71 0-4.322-3.52-7.834-7.843-7.834a7.828 7.828 0 0 0-7.834 7.835c0 .178.009.33.026.49h-.026l.044 19.358.027.01v.035c4.51 2.05 7.522 6.604 7.522 11.88 0 7.202-5.802 13.03-12.977 13.03-7.156 0-12.95-5.828-12.95-13.03 0-4.813 2.594-9.028 6.48-11.274l.936-.49c.124-.063.231-.125.365-.179l-.035-10.686.026-8.654h-.026c.009-.16.035-.312.035-.49 0-4.323-3.52-7.835-7.852-7.835-4.331 0-7.86 3.512-7.86 7.835a7.848 7.848 0 0 0 6.158 7.665l-17.95 13.306L24.3 173.858h37.442l14.073-38.645-18.307-13.423" style="fill:#0051a6;fill-opacity:1;fill-rule:nonzero;stroke:none;stroke-width:2.28164"/><path d="m-2.474 139.036-7.549-.57 1.132 2.201-1.81-.143c-.552-1.408-1.283-2.549-2.2-3.413l.062-.74 10.517.793-.152 1.872M-1.957 134.615l-1.319.606c-.294-1.622-.963-2.914-2.005-3.903.044.356-.027.757-.178 1.23-.312.927-.865 1.577-1.64 1.951-.767.375-1.65.393-2.656.063-.98-.339-1.685-.891-2.113-1.676-.4-.793-.454-1.622-.169-2.495.793-2.309 2.63-2.977 5.553-1.997 1.22.401 2.308 1.266 3.244 2.567.953 1.301 1.372 2.513 1.283 3.654zm-7.255-1.871c.562.178 1.043.205 1.453.053.41-.16.677-.446.811-.847.357-1.007-.053-1.702-1.185-2.076-1.23-.41-2.015-.098-2.353.927-.143.4-.107.793.133 1.14.223.357.598.615 1.141.803M-.985 129.01l-.508-.179-3.539-4.706c-.713-.945-1.381-1.524-2.023-1.756-.74-.24-1.274.072-1.577.963-.241.677-.072 1.364.508 2.032l-1.355.865c-.383-.41-.642-.91-.793-1.516a3.196 3.196 0 0 1 .116-1.827c.338-1.016.855-1.729 1.515-2.148.668-.392 1.39-.472 2.228-.187.74.268 1.55.954 2.433 2.077l2.398 3.084 1.283-3.726 1.577.553-2.263 6.47M1.84 115.507l2.362 1.417-.91 1.524-2.379-1.39-2.424 4.081-.936-.534-2.852-8.351.41-.705 5.454 3.209.544-.91 1.284.758zm-4.91-.803 1.354 3.886 1.355-2.29zM88.355 137.833l-.267-2.006c2.486.428 5.606 1.346 9.313 2.763l-.66-4.768 1.712-.25 1.007 7.175-.793.116-1.898-.695c-.642-.232-1.346-.455-2.095-.713-.757-.232-1.524-.463-2.308-.686a76.013 76.013 0 0 0-2.193-.57 27.339 27.339 0 0 0-1.818-.366M84.335 108.52a2.046 2.046 0 0 1-4.09 0c0-1.115.909-2.042 2.05-2.042 1.122 0 2.04.927 2.04 2.041M6.376 107.886c0 1.123-.918 2.023-2.058 2.023-1.123 0-2.032-.9-2.032-2.023 0-1.132.909-2.058 2.032-2.058a2.06 2.06 0 0 1 2.058 2.058M82.41 118.047l6.596-3.708-2.166-1.22 1.56-.874c1.265.855 2.495 1.39 3.76 1.604l.366.66-9.198 5.16-.918-1.622M84.817 123.154l.49-1.346c1.364.945 2.763 1.39 4.189 1.364-.268-.214-.517-.553-.74-1.008-.428-.864-.508-1.71-.214-2.513.285-.82.91-1.444 1.836-1.907.945-.455 1.854-.544 2.7-.286.856.268 1.48.82 1.9 1.658 1.069 2.184.222 3.949-2.54 5.294-1.15.57-2.532.713-4.127.446-1.587-.258-2.754-.829-3.494-1.702zm6.47-3.744c-.534.268-.891.589-1.06.99a1.342 1.342 0 0 0 0 1.167c.472.963 1.256 1.168 2.335.642 1.158-.562 1.497-1.337 1.034-2.308-.214-.401-.5-.633-.91-.722-.418-.098-.89-.01-1.399.231M90.592 132.797l-2.7.517-.348-1.765 2.7-.517-.926-4.67 1.051-.196 7.736 4.323.143.793-6.212 1.221.223 1.034-1.47.285zm4.198-2.656-3.61-2.005.526 2.602zM52.83 89.223a3.292 3.292 0 0 0 3.457 3.102 3.3 3.3 0 0 0 3.093-3.485c-.01-.071-.01-.134-.036-.205l.82.285.544-1.604-2.513-.883.374-1.105-2.068-.722-.374 1.123-2.692-.944-.561 1.604.909.312a3.35 3.35 0 0 0-.954 2.522zm3.199-1.595a1.398 1.398 0 0 1 1.47 1.301 1.377 1.377 0 0 1-1.3 1.453c-.75.044-1.391-.535-1.445-1.301-.062-.758.526-1.4 1.275-1.453M64.335 91.844l1.31.454.607-1.711-1.328-.464.508-1.488-1.863-.642-2.014 5.847 1.862.642.918-2.638M59.567 99.874l1.827.633 1.685-4.84-11.613-4.046-.57 1.693 9.75 3.387-1.079 3.173M45.913 87.967l1.016.044-.25 8.271 1.988.053.392-12.317-1.996-.062-.071 2.353-1.025-.027.07-2.353-1.996-.071-.383 12.326 1.997.053.258-8.27M42.098 89.134l-4.073.178-.142-3.422 4.073-.178-.08-1.854-6.052.258.303 7.13 6.043-.258-.072-1.854M23.444 89.259l-2.647 3.734 1.934.294 3.209-4.804 5.374 1.845 1.497-1.443-4.545-1.221 3.503-1.168-.553-1.72-11.863 3.93.562 1.72 3.53-1.167M22.054 97.592l5.25-1.827 1.078 3.128 1.952-.668-1.079-3.11 5.152-1.783-.597-1.72-12.336 4.251.58 1.73M6.26 99.633l1.596-1.096.107 3.137 1.791-.303-.16-4.037 3.868 1.542.82-1.712-2.807-1.15 1.48-1.042-1-1.444-2.495 1.73-.632-.955-1.685 1.15.65.972-2.53 1.764.998 1.444M20.868 101.844c.42-1.765-.668-3.53-2.415-3.94a3.308 3.308 0 0 0-3.957 2.433c-.41 1.774.66 3.539 2.424 3.958 1.756.418 3.52-.678 3.948-2.451zm-4.5-1.07c.169-.73.9-1.176 1.622-1.007.74.178 1.176.909 1.016 1.64a1.364 1.364 0 0 1-1.64 1.007c-.722-.16-1.177-.9-.998-1.64M13.409 94.259l1.025 1.47 1.55-1.087 1.373 2.005 1.64-1.131-3.387-4.885-1.613 1.132.962 1.409-1.55 1.087M64.264 98.51l-1.034 1.47 10.642 7.523 1.025-1.47-2.906-2.068 1.827-2.63-1.71-1.194-1.819 2.63-2.389-1.694 1.828-2.638-1.73-1.194-1.8 2.629-1.934-1.364M69.032 92.29l8.405 5.962-2.754 3.921 1.578 1.123 3.814-5.445-9.99-7.068-1.053 1.506M-11.092 152.084s-.143-2.879 3.716-3.618c0 0 3.788-.687 4.439 1.898 0 0 .16 1.043-.383 1.515l2.281-.445s.383-1.738-.99-3.325c0 0-1.942-2.094-5.48-1.55 0 0-3.459.498-4.778 3.012 0 0-1.443 1.987.152 4.706l2.246-.589s-.963-.49-1.203-1.604M1.02 157.387s-3.877 1.551-4.136 1.658a496.367 496.367 0 0 0-1.15-2.897c.26-.098 4.118-1.649 4.118-1.649l-.677-1.72-10.82 4.332.695 1.711s4.466-1.791 4.742-1.89c.08.241 1.043 2.648 1.14 2.88-.258.106-4.732 1.907-4.732 1.907l.686 1.693 10.82-4.331-.686-1.694M2.232 160.462l-.134.071-10.062 5.597 2.79 5.018 1.836-1.016s-1.765-3.164-1.89-3.404c.232-.143 2.469-1.382 2.7-1.507.126.223 1.355 2.433 1.355 2.433l1.765-.98s-1.23-2.201-1.355-2.433c.214-.125 1.828-1.016 2.06-1.14.142.24 1.898 3.404 1.898 3.404l1.836-1.016-2.799-5.027M7.758 168.742c-.722-.927-1.774-1.31-3.11-1.14-1.329.16-2.657.757-3.949 1.764-1.462 1.15-2.45 2.317-2.905 3.485a3.619 3.619 0 0 0-.286 1.345c0 .678.241 1.302.696 1.89.802 1.025 1.88 1.488 3.208 1.364 1.292-.134 2.683-.776 4.136-1.917 1.452-1.14 2.388-2.308 2.78-3.467.42-1.185.214-2.3-.57-3.324zm-3.378 5.312c-1.034.81-1.96 1.283-2.745 1.4-.758.115-1.346-.099-1.792-.67-.365-.463-.374-1.006-.044-1.675.356-.704 1.043-1.462 2.077-2.264.935-.73 1.791-1.176 2.549-1.328.748-.133 1.292.036 1.684.526.865 1.096.294 2.415-1.729 4.01M14.22 175.631l-4.26 4.822 1.39-7.344-.731-.65-.098.115-7.603 8.628 1.328 1.185s3.744-4.251 4.376-4.973c-.196.963-1.506 7.683-1.506 7.683l.633.561 7.799-8.85-1.328-1.177M17.188 184.036l-1.07 1.729s.829.517 1.025.642c-.125.214-.99 1.613-1.052 1.711a1.567 1.567 0 0 1-1.283-.196c-.65-.41-.99-1.007-1.025-1.818-.036-.838.267-1.765.873-2.772.642-1.052 1.373-1.774 2.148-2.14.776-.364 1.48-.338 2.157.081.214.125.419.366.615.722.196.348.312.66.357.918l.053.259 1.658-1.248-.019-.098c-.178-1.025-.686-1.8-1.541-2.326-1.159-.713-2.407-.803-3.69-.277-1.275.535-2.38 1.569-3.325 3.084-.918 1.497-1.363 2.941-1.3 4.251.061 1.328.64 2.353 1.728 3.022.508.303 1.07.526 1.694.641a3.822 3.822 0 0 0 1.746-.053l.072-.009 2.771-4.519-2.593-1.604M26.243 182.735l-.054.151-2.763 6.56c-.32.775-.677 1.328-.998 1.631-.312.276-.65.32-1.07.151-.588-.25-.801-.641-.668-1.23l.019-.124-1.525-.633-.062.142c-.303.856-.339 1.623-.116 2.273.223.66.695 1.15 1.382 1.435 1.042.437 1.96.401 2.736-.116.766-.49 1.435-1.453 2.032-2.87l2.799-6.648-1.712-.722M31.938 192.628c-.16.597-.41 1.034-.767 1.301-.356.267-.766.33-1.265.205-.437-.107-.731-.339-.9-.74-.17-.41-.179-.891-.054-1.461l1.872-7.603-1.792-.446-.035.152-1.863 7.576c-.285 1.203-.24 2.21.152 2.985.4.803 1.114 1.328 2.12 1.587 1.008.24 1.9.107 2.684-.419.757-.517 1.283-1.373 1.568-2.54l1.907-7.736-1.782-.428-1.845 7.567M46.974 185.925l-1.703.027.152 7.799c.009.606-.143 1.096-.41 1.444-.277.347-.66.525-1.168.534-.445 0-.793-.151-1.06-.49-.268-.356-.401-.829-.42-1.4l-.124-7.842-1.845.035.134 7.95c.018 1.248.33 2.202.909 2.861.58.669 1.399.999 2.45.98 1.026-.017 1.872-.382 2.478-1.078.615-.704.91-1.675.892-2.87l-.143-7.95h-.142M54.594 184.589l-1.595.303s1.024 5.4 1.203 6.319c-.642-.722-4.956-5.606-4.956-5.606l-.944.178 2.183 11.461 1.738-.33-1.239-6.506c.642.74 5.134 5.9 5.134 5.9l.829-.16-2.202-11.595-.151.035M58.159 183.528l-1.613.526 3.583 11.087 1.773-.57-3.6-11.096-.143.053M66.492 179.615l-1.577.785s1.23 6.399 1.426 7.361c-.66-.74-4.902-5.641-4.902-5.641l-1.792.891 8.2 9.109.971-.473-2.147-12.12-.179.088M74.496 185.64c-.152-.214-1.667-2.3-1.818-2.513.213-.16 2.255-1.64 2.255-1.64l-1.177-1.622s-2.032 1.48-2.255 1.63a254.267 254.267 0 0 1-1.381-1.906 729.44 729.44 0 0 1 3.164-2.282l-1.23-1.702-.125.089-4.545 3.28 6.844 9.438 4.653-3.369-1.221-1.702s-2.932 2.13-3.164 2.3M80.949 175.39c0-.302-.045-.623-.143-.953a3.944 3.944 0 0 0-1.034-1.675c-.829-.82-1.658-1.23-2.495-1.23-.811.009-1.614.418-2.425 1.23l-.935 1.042-.75.847.09.107 8.19 8.075 1.338-1.355s-3.164-3.11-3.37-3.324c.143-.125.446-.401.544-.482.152.054 4.947 1.65 4.947 1.65l1.48-1.498s-5.304-1.738-5.535-1.81c.053-.204.098-.41.098-.623zm-5-.668c.089-.098.231-.276.231-.276.455-.472.865-.74 1.212-.793.34-.071.678.08 1.043.428.42.418.624.793.624 1.105v.08c-.035.33-.267.722-.695 1.167 0 0-.232.196-.365.312-.179-.169-1.881-1.845-2.05-2.023M88.266 169.954a4.585 4.585 0 0 0-1.275-.66 3.166 3.166 0 0 0-1.292-.187c-.419.019-.963.17-1.613.42-1.15.454-1.979.516-2.451.16-.303-.196-.481-.437-.553-.704a.835.835 0 0 1 .152-.75c.33-.445.829-.739 1.524-.864l.25-.053-1.355-1.649h-.09c-.704.107-1.363.57-1.978 1.417a2.495 2.495 0 0 0-.41 2.148c.196.758.668 1.417 1.4 1.952.4.285.792.5 1.185.624.4.134.802.187 1.185.16.374-.009.936-.169 1.702-.463.713-.267 1.266-.392 1.64-.357.392.027.731.152 1.016.357.597.446.66.954.187 1.604-.312.455-.864.758-1.622.927l-.232.045 1.337 1.773.098-.018c.847-.232 1.533-.677 2.024-1.355.57-.784.766-1.595.597-2.433-.178-.838-.642-1.533-1.426-2.094M82.999 162.262l-.838 1.48 10.187 5.704.891-1.613-10.17-5.704-.07.133M88.373 154.883l-1.943-.785-.054.152-2.718 6.756 1.943.793s.918-2.308 1.025-2.558c.276.107 8.877 3.574 8.877 3.574l.686-1.693s-8.6-3.467-8.877-3.574c.098-.25 1.06-2.665 1.06-2.665M94.389 149.9c-.062-.035-6.194-4.25-6.194-4.25l-.045.222-.33 1.694s3.628 2.442 4.145 2.798c-.615.125-4.884 1.007-4.884 1.007l-.384 1.925 7.362-1.613c0 .01 4.519.891 4.519.891l.134.036.365-1.8s-4.626-.9-4.688-.91" style="fill:#fff;fill-opacity:1;fill-rule:nonzero;stroke:none;stroke-width:2.28164"/><path d="m131.83 166.897-.721 1.943c-.695-.526-1.783-.793-3.253-.793-1.4 0-2.513.624-3.351 1.898-.838 1.257-1.257 2.879-1.257 4.875 0 1.908.428 3.44 1.292 4.635.865 1.176 1.97 1.765 3.334 1.765 1.48 0 2.629-.562 3.431-1.676l1.194 1.738c-1.265 1.337-2.887 1.996-4.866 1.996-2.068 0-3.699-.784-4.893-2.361-1.194-1.57-1.791-3.655-1.791-6.221 0-2.514.641-4.573 1.916-6.23 1.274-1.65 2.914-2.478 4.928-2.478 1.712 0 3.066.303 4.038.909M144.335 182.993v-8.075h-6.925v8.075h-2.174v-16.72h2.174v6.711h6.925v-6.71h2.175v16.72h-2.175M152.17 168.323v4.661h5.124v1.934h-5.124v6.025h7.183v2.05h-9.358v-16.72h9.358v2.05h-7.183M164.683 169.776c.695-1.15 1.72-1.73 3.084-1.73 3.039 0 4.572 2.149 4.572 6.453 0 2.13-.401 3.78-1.185 4.965-.776 1.176-1.917 1.756-3.387 1.756-1.32 0-2.335-.633-3.057-1.926-.722-1.274-1.088-2.878-1.088-4.795 0-1.987.357-3.565 1.06-4.723zm-1.64 11.034c1.123 1.64 2.7 2.468 4.715 2.468 2.192 0 3.886-.775 5.062-2.335 1.177-1.55 1.765-3.698 1.765-6.444 0-2.682-.588-4.759-1.765-6.256-1.176-1.506-2.87-2.255-5.062-2.255-1.961 0-3.53.82-4.688 2.442-1.15 1.631-1.73 3.645-1.73 6.07 0 2.566.553 4.679 1.703 6.31M187.562 183.207l-8.2-12.21v11.996h-2.059v-16.72h.856l8.003 11.56v-11.56h2.06v16.934h-.66M202.731 167.45l-.9 1.88c-1.096-.855-2.175-1.283-3.226-1.283-1.667 0-2.986.606-3.949 1.845-.962 1.23-1.444 2.86-1.444 4.902 0 1.925.473 3.484 1.417 4.67.945 1.176 2.22 1.756 3.85 1.756 1.16 0 2.104-.357 2.808-1.097v-3.939h-2.21v-1.925h4.385v7.3c-.57.507-1.382.935-2.424 1.247a10.338 10.338 0 0 1-3.013.472c-2.201 0-3.921-.775-5.196-2.344-1.266-1.56-1.907-3.645-1.907-6.23 0-2.593.695-4.688 2.094-6.292 1.4-1.613 3.28-2.424 5.65-2.424 1.659 0 3.013.49 4.065 1.462M205.85 179.642h1.899c.178 1.016.749 1.524 1.72 1.524.954 0 1.622-.223 2.014-.66.392-.436.58-1.666.58-3.671v-10.562h2.174v10.472c0 2.282-.338 3.93-1.042 4.947-.687 1.016-1.935 1.515-3.726 1.515-1.034 0-1.872-.312-2.531-.971-.66-.642-1.025-1.507-1.088-2.594M217.749 166.273h2.166v11.453c0 1.016.312 1.845.927 2.513.615.66 1.434.98 2.433.98 1.07 0 1.916-.311 2.53-.953.616-.642.919-1.506.919-2.594v-11.399h2.175v11.631c0 1.685-.508 3.004-1.507 3.948-.998.954-2.37 1.426-4.082 1.426-1.782 0-3.155-.463-4.117-1.39-.963-.927-1.444-2.264-1.444-4.002v-11.613M239.282 166.273h2.175v11.453c0 1.016.311 1.845.926 2.513.615.66 1.426.98 2.434.98 1.07 0 1.907-.311 2.53-.953.607-.642.919-1.506.919-2.594v-11.399h2.166v11.631c0 1.685-.5 3.004-1.498 3.948-1.007.954-2.37 1.426-4.09 1.426-1.774 0-3.156-.463-4.11-1.39-.97-.927-1.452-2.264-1.452-4.002v-11.613M264.166 183.207l-8.2-12.21v11.996h-2.05v-16.72h.847l8.013 11.56v-11.56h2.05v16.934h-.66M268.658 182.993v-16.72h2.183v16.72h-2.183M280.227 183.207h-1.088l-5.909-16.934h2.406l4.065 12.308 3.94-12.308h2.334l-5.748 16.934M290.146 168.323v4.661h5.134v1.934h-5.134v6.025h7.193v2.05h-9.358v-16.72h9.358v2.05h-7.193M303.631 168.234c1.373 0 2.37.205 3.013.606.632.41.953 1.096.953 2.023 0 1.132-.303 1.925-.891 2.362-.588.446-1.542.66-2.843.66-.481 0-.99-.036-1.515-.116v-5.428c.641-.071 1.06-.107 1.283-.107zm7.736 14.76-4.608-7.692c.847-.206 1.578-.731 2.202-1.569a4.65 4.65 0 0 0 .927-2.825c0-3.2-1.916-4.795-5.74-4.795-.481 0-1.239.035-2.282.089-1.06.062-1.622.08-1.702.08v16.711h2.184v-7.29c1.043.07 1.818.116 2.3.116l4.233 7.174h2.486M312.508 182.227l.793-2.086c.401.303.91.57 1.507.767.597.213 1.14.312 1.613.312.847 0 1.524-.232 2.04-.722.518-.49.767-1.105.767-1.863 0-.562-.142-1.078-.428-1.569-.285-.481-.998-1.007-2.147-1.586l-1.266-.624c-1.079-.526-1.836-1.168-2.273-1.898-.419-.722-.641-1.596-.641-2.63 0-1.247.418-2.281 1.265-3.101.829-.82 1.907-1.24 3.226-1.24 1.756 0 2.977.304 3.664.919l-.642 1.987c-.276-.24-.722-.445-1.31-.66-.589-.204-1.141-.311-1.658-.311-.73 0-1.31.214-1.738.66-.419.445-.642 1.007-.642 1.702 0 .428.08.82.232 1.167.152.348.374.642.642.883.258.231.82.57 1.657.989l1.31.65c1.079.544 1.837 1.195 2.273 1.944.437.748.66 1.693.66 2.86 0 1.257-.49 2.318-1.444 3.182-.963.874-2.246 1.32-3.85 1.32-1.417 0-2.612-.348-3.61-1.052M324.496 182.993v-16.72h2.183v16.72h-2.183M336.34 168.323v14.67h-2.174v-14.67h-5.045v-2.05h12.505v2.05h-5.285M349.46 175.507v7.486h-2.175v-7.486l-5.124-9.234h2.246l3.957 7.308 3.975-7.308h2.21l-5.089 9.234M264.54 107.173v8.432h-2.887v-8.432H253.8v44.92h7.852v-29.661h2.887v29.661h7.852v-44.92h-7.852M225.735 107.325v26.346h22.317v-7.407h-14.563v-11.542h14.563v-7.397h-22.317M368.676 142.53l-.01-11.39h-8.181v11.399h-9.715v-11.39h-8.19v11.39l-8.263.009v7.219h47.246v-7.237h-12.887M372.08 132.485h7.683v-24.58h-.357l-44.197.017v7.38h36.871v17.184M143.578 133.394c-4.982 4.466-5.455 12.122-1.052 17.068 4.439 4.938 12.095 5.33 17.077.873a12.185 12.185 0 0 0 4.064-8.422c.009-.223.018-.446.018-.677 0-2.95-1.07-5.758-3.04-7.96-4.42-4.937-12.067-5.338-17.067-.882zm11.007 12.309a4.579 4.579 0 0 1-3.307 1.15 4.484 4.484 0 0 1-3.057-1.489 4.382 4.382 0 0 1-1.123-2.95c0-1.248.517-2.496 1.515-3.396a4.584 4.584 0 0 1 3.29-1.158 4.415 4.415 0 0 1 3.074 1.488c1.64 1.827 1.462 4.68-.392 6.355M150.173 123.983s-5.062-7.888-5.695-8.869h6.23v-7.085h-10.775v-4.162h-7.995v4.135H120.77v7.13h6.64c-.66.999-5.971 8.842-5.971 8.842l6.524 3.725 7.683-12.255c.57.874 8.02 12.255 8.02 12.255l6.507-3.716M159.433 106.96s-.018 5.543-.018 6.176h-6.702v7.148h6.702v8.806h7.96v-22.13h-7.942M219.344 114.455v-7.246h-45.312v7.397h12.433c-1.63 1.123-12.79 8.869-12.79 8.869l6.944 3.636s15.802-12.086 16.23-12.415l16.06 12.415 7.478-3.636s-11.783-7.88-13.485-9.02h12.442M172.936 133.483v7.46h19.902v11.89h8.066v-11.89h19.385v-7.46h-47.353M280.004 119.963c0 1.622.32 3.235.962 4.742a12.126 12.126 0 0 0 6.65 6.595c2.976 1.212 6.238 1.194 9.17-.045a11.9 11.9 0 0 0 6.462-6.542c.606-1.488.9-3.039.9-4.59 0-1.604-.32-3.217-.963-4.75-.009-.036-.044-.09-.062-.143h2.834v-6.836h-9.634v-4.215h-8.494v4.198h-10.205v6.871h3.44c-.632 1.515-1.06 3.11-1.06 4.715zm16.3-1.8c.482 1.123.491 2.37.028 3.511a4.541 4.541 0 0 1-2.434 2.478c-2.308.954-4.982-.152-5.971-2.478a4.794 4.794 0 0 1-.348-1.773c0-1.783 1.043-3.485 2.763-4.216 2.3-.963 4.991.151 5.963 2.478M323.373 107.236h-7.728v22.763h7.772v-9.885h5.107v-7.299h-5.151v-5.58M279.273 133.715v7.255h37.005v11.89h7.558v-19.145h-44.563" style="fill:#f9f9f9;fill-opacity:1;fill-rule:nonzero;stroke:none;stroke-width:2.28164"/></g></svg>